<svg xmlns="http://www.w3.org/2000/svg" viewBox="0 0 96 96">
  <rect x="6" y="6" width="84" height="84" rx="20" fill="#e84a2a"/>
  <g transform="translate(48,48) rotate(-32) scale(0.23) translate(-180,-60)" fill="#ffffff">
    <path d="M180 46C205 46 222 46 242 46C274 24 322 20 350 27C360 32 358 40 348 43L303 52C295 55 295 65 303 68L347 75C357 77 358 85 346 90C322 96 274 96 242 74C222 74 205 74 180 74C155 74 138 74 118 74C86 96 38 100 10 93C0 88 2 80 12 77L57 68C65 65 65 55 57 52L13 45C3 43 2 35 14 30C38 24 86 24 118 46C138 46 155 46 180 46Z"/>
  </g>
</svg>
